<svg width="512" height="512" viewBox="0 0 512 512" fill="none" xmlns="http://www.w3.org/2000/svg">
<path d="M277.334 85.3335H392.534C404.482 85.3335 410.472 85.3335 415.036 87.6587C419.05 89.704 422.289 92.9652 424.334 96.9793C426.659 101.543 426.667 107.521 426.667 119.469V135.356C426.667 140.468 426.667 143.051 426.084 145.481C425.561 147.658 424.688 149.737 423.518 151.646C422.199 153.799 420.36 155.644 416.67 159.334L384.001 192.003M159.992 85.3335H119.459C107.511 85.3335 101.543 85.3335 96.9798 87.6587C92.9657 89.704 89.7045 92.9652 87.6592 96.9793C85.334 101.543 85.334 107.521 85.334 119.469V135.197C85.334 140.415 85.334 143.026 85.9234 145.481C86.446 147.658 87.3101 149.737 88.4798 151.646C89.7987 153.798 91.6467 155.646 95.334 159.334L203.339 267.339C207.029 271.028 208.863 272.863 210.183 275.016C211.352 276.924 212.228 279.011 212.751 281.188C213.334 283.618 213.334 286.198 213.334 291.31V392.768C213.334 411.055 213.334 420.205 217.186 425.712C220.549 430.52 225.737 433.728 231.542 434.585C238.19 435.568 246.373 431.483 262.73 423.304L279.796 414.771C286.646 411.346 290.062 409.628 292.564 407.073C294.777 404.814 296.47 402.101 297.501 399.112C298.667 395.731 298.667 391.893 298.667 384.235V291.469C298.667 286.251 298.667 283.643 299.257 281.188C299.779 279.011 300.643 276.927 301.813 275.018C303.128 272.873 304.964 271.036 308.628 267.373L308.667 267.336L330.669 245.335M330.669 245.335L106.667 21.3335M330.669 245.335L405.334 320" stroke="white" stroke-width="20" stroke-linecap="round" stroke-linejoin="round"/>
</svg>
