<svg width="512" height="512" viewBox="0 0 512 512" fill="none" xmlns="http://www.w3.org/2000/svg">
<path d="M298.667 341.333H405.333V448M213.333 170.667H106.667V64M414.241 192.073C402.28 162.467 382.253 136.811 356.438 118.021C330.622 99.2302 300.057 88.0538 268.208 85.7708C236.36 83.4879 204.503 90.1846 176.271 105.101C148.039 120.018 124.562 142.561 108.5 170.157M97.75 319.938C109.711 349.543 129.738 375.199 155.554 393.989C181.369 412.78 211.965 423.942 243.814 426.225C275.662 428.508 307.493 421.812 335.725 406.896C363.957 391.979 387.419 369.44 403.48 341.844" stroke="white" stroke-width="20" stroke-linecap="round" stroke-linejoin="round"/>
</svg>
